<svg width="264" height="130" viewBox="0 0 264 130" fill="none" xmlns="http://www.w3.org/2000/svg">
<rect width="264" height="130" rx="2" fill="#EBE7D1"/>
<path d="M117.552 77V58.12H110.128V54.6H129.136V58.12H121.712V77H117.552ZM137.804 77.224C136.055 77.224 134.497 76.8507 133.132 76.104C131.767 75.336 130.689 74.2907 129.9 72.968C129.111 71.6453 128.716 70.1413 128.716 68.456C128.716 66.7493 129.111 65.2453 129.9 63.944C130.689 62.6213 131.767 61.5867 133.132 60.84C134.497 60.0933 136.055 59.72 137.804 59.72C139.575 59.72 141.143 60.0933 142.508 60.84C143.895 61.5867 144.972 62.6107 145.74 63.912C146.529 65.2133 146.924 66.728 146.924 68.456C146.924 70.1413 146.529 71.6453 145.74 72.968C144.972 74.2907 143.895 75.336 142.508 76.104C141.143 76.8507 139.575 77.224 137.804 77.224ZM137.804 73.8C138.785 73.8 139.66 73.5867 140.428 73.16C141.196 72.7333 141.793 72.1147 142.22 71.304C142.668 70.4933 142.892 69.544 142.892 68.456C142.892 67.3467 142.668 66.3973 142.22 65.608C141.793 64.7973 141.196 64.1787 140.428 63.752C139.66 63.3253 138.796 63.112 137.836 63.112C136.855 63.112 135.98 63.3253 135.212 63.752C134.465 64.1787 133.868 64.7973 133.42 65.608C132.972 66.3973 132.748 67.3467 132.748 68.456C132.748 69.544 132.972 70.4933 133.42 71.304C133.868 72.1147 134.465 72.7333 135.212 73.16C135.98 73.5867 136.844 73.8 137.804 73.8ZM164.521 77V58.12H157.097V54.6H176.105V58.12H168.681V77H164.521ZM184.773 77.224C183.023 77.224 181.466 76.8507 180.101 76.104C178.735 75.336 177.658 74.2907 176.869 72.968C176.079 71.6453 175.685 70.1413 175.685 68.456C175.685 66.7493 176.079 65.2453 176.869 63.944C177.658 62.6213 178.735 61.5867 180.101 60.84C181.466 60.0933 183.023 59.72 184.773 59.72C186.543 59.72 188.111 60.0933 189.477 60.84C190.863 61.5867 191.941 62.6107 192.709 63.912C193.498 65.2133 193.893 66.728 193.893 68.456C193.893 70.1413 193.498 71.6453 192.709 72.968C191.941 74.2907 190.863 75.336 189.477 76.104C188.111 76.8507 186.543 77.224 184.773 77.224ZM184.773 73.8C185.754 73.8 186.629 73.5867 187.397 73.16C188.165 72.7333 188.762 72.1147 189.189 71.304C189.637 70.4933 189.861 69.544 189.861 68.456C189.861 67.3467 189.637 66.3973 189.189 65.608C188.762 64.7973 188.165 64.1787 187.397 63.752C186.629 63.3253 185.765 63.112 184.805 63.112C183.823 63.112 182.949 63.3253 182.181 63.752C181.434 64.1787 180.837 64.7973 180.389 65.608C179.941 66.3973 179.717 67.3467 179.717 68.456C179.717 69.544 179.941 70.4933 180.389 71.304C180.837 72.1147 181.434 72.7333 182.181 73.16C182.949 73.5867 183.813 73.8 184.773 73.8ZM207.19 77.224C205.803 77.224 204.534 76.904 203.382 76.264C202.251 75.624 201.344 74.664 200.662 73.384C200 72.0827 199.67 70.44 199.67 68.456C199.67 66.4507 199.99 64.808 200.63 63.528C201.291 62.248 202.187 61.2987 203.318 60.68C204.448 60.04 205.739 59.72 207.19 59.72C208.875 59.72 210.358 60.0827 211.638 60.808C212.939 61.5333 213.963 62.5467 214.71 63.848C215.478 65.1493 215.862 66.6853 215.862 68.456C215.862 70.2267 215.478 71.7733 214.71 73.096C213.963 74.3973 212.939 75.4107 211.638 76.136C210.358 76.8613 208.875 77.224 207.19 77.224ZM197.718 83.208V59.912H201.526V63.944L201.398 68.488L201.718 73.032V83.208H197.718ZM206.742 73.8C207.702 73.8 208.555 73.5867 209.302 73.16C210.07 72.7333 210.678 72.1147 211.126 71.304C211.574 70.4933 211.798 69.544 211.798 68.456C211.798 67.3467 211.574 66.3973 211.126 65.608C210.678 64.7973 210.07 64.1787 209.302 63.752C208.555 63.3253 207.702 63.112 206.742 63.112C205.782 63.112 204.918 63.3253 204.15 63.752C203.382 64.1787 202.774 64.7973 202.326 65.608C201.878 66.3973 201.654 67.3467 201.654 68.456C201.654 69.544 201.878 70.4933 202.326 71.304C202.774 72.1147 203.382 72.7333 204.15 73.16C204.918 73.5867 205.782 73.8 206.742 73.8Z" fill="#356859"/>
<path d="M46.3875 82.5312L43.5 79.6437L60 63.1438L76.5 79.6437L73.6125 82.5312L60 68.9188L46.3875 82.5312ZM46.3875 65.1375L43.5 62.25L60 45.75L76.5 62.25L73.6125 65.1375L60 51.525L46.3875 65.1375Z" fill="#356859"/>
</svg>
