<svg width="114" height="114" viewBox="0 0 114 114" fill="none" xmlns="http://www.w3.org/2000/svg">
<path d="M56.9975 38.0271C46.4936 38.0271 38.0254 46.5771 38.0254 57C38.0254 67.4229 46.5751 75.9729 56.9975 75.9729C67.4199 75.9729 75.9695 67.4229 75.9695 57C75.9695 46.5771 67.4199 38.0271 56.9975 38.0271ZM113.995 57C113.995 49.1014 113.995 41.3657 113.588 33.4671C113.181 24.3471 111.064 16.2043 104.387 9.60857C97.7099 2.93143 89.6489 0.814285 80.5293 0.407142C72.6311 -3.94349e-07 64.8957 0 56.9975 0C49.0992 0 41.3639 -3.94349e-07 33.4657 0.407142C24.3461 0.814285 16.2036 2.93143 9.60814 9.60857C2.9313 16.2857 0.814249 24.3471 0.407124 33.4671C-3.94331e-07 41.3657 0 49.1014 0 57C0 64.8986 -3.94331e-07 72.6343 0.407124 80.5329C0.814249 89.6529 2.9313 97.7957 9.60814 104.391C16.285 111.069 24.3461 113.186 33.4657 113.593C41.3639 114 49.0992 114 56.9975 114C64.8957 114 72.6311 114 80.5293 113.593C89.6489 113.186 97.7914 111.069 104.387 104.391C111.064 97.7143 113.181 89.6529 113.588 80.5329C114.076 72.7157 113.995 64.8986 113.995 57ZM56.9975 86.2329C40.7939 86.2329 27.7659 73.2043 27.7659 57C27.7659 40.7957 40.7939 27.7671 56.9975 27.7671C73.201 27.7671 86.229 40.7957 86.229 57C86.229 73.2043 73.201 86.2329 56.9975 86.2329ZM87.4504 33.3857C83.7048 33.3857 80.6107 30.3729 80.6107 26.5457C80.6107 22.7186 83.6234 19.7057 87.4504 19.7057C91.2774 19.7057 94.2901 22.7186 94.2901 26.5457C94.3107 27.4377 94.1479 28.3243 93.8117 29.1507C93.4756 29.9772 92.9732 30.7257 92.3359 31.35C91.7116 31.9874 90.9631 32.4897 90.1367 32.8259C89.3103 33.1621 88.4237 33.3249 87.5318 33.3043L87.4504 33.3857Z" fill="black"/>
</svg>
